<svg width="981" height="240" viewBox="0 0 981 240" fill="none" xmlns="http://www.w3.org/2000/svg">
<path d="M166.583 228.285C163.811 228.285 161.424 227.284 159.422 225.282C157.574 223.28 156.65 220.893 156.65 218.121C156.65 216.735 156.881 215.503 157.343 214.425L172.358 175.848L128.93 70.05C128.776 69.434 128.545 68.741 128.237 67.971C128.083 67.201 128.006 66.431 128.006 65.661C128.006 62.735 129.007 60.271 131.009 58.269C133.011 56.113 135.475 55.035 138.401 55.035C140.557 55.035 142.482 55.651 144.176 56.883C146.024 58.115 147.333 59.655 148.103 61.503L183.677 149.745L219.944 61.965C220.868 59.809 222.1 58.115 223.64 56.883C225.334 55.651 227.336 55.035 229.646 55.035C232.572 55.035 235.036 56.113 237.038 58.269C239.04 60.271 240.041 62.735 240.041 65.661C240.041 67.047 239.81 68.356 239.348 69.588L176.285 221.124C175.361 223.126 174.129 224.82 172.589 226.206C171.049 227.592 169.047 228.285 166.583 228.285Z" fill="#FF0000"/>
<path d="M306.575 176C296.375 176 288.35 173.075 282.5 167.225C276.8 161.375 273.95 153.425 273.95 143.375V32.45H294.65V142.025C294.65 146.975 296 150.95 298.7 153.95C301.55 156.8 305.45 158.225 310.4 158.225H333.575V176H306.575ZM254.15 79.025V61.25H334.025V79.025H254.15Z" fill="#FF0000"/>
<path d="M453.415 120.444L474.442 121.285L472.759 134.742C472.759 134.742 465.19 159.973 448.369 166.982C431.548 173.991 425.38 179.037 399.588 173.991C373.796 168.945 366.787 155.207 357.535 138.386C348.283 121.565 357.815 76.7958 378.842 66.0991C399.868 55.4024 410.521 52.3185 432.389 57.3648C454.256 62.4112 471.918 91.007 471.918 91.007L393.14 134.742L383.047 119.322L440.239 87.3624C440.239 87.3624 438.276 76.7091 419.212 73.6252C400.148 70.5414 385.851 87.3624 385.851 87.3624C385.851 87.3624 370.712 110.568 376.599 126.72C382.486 142.872 390.616 152.965 405.195 155.207C419.773 157.45 441.921 157.731 450.892 132.779L453.415 120.444Z" fill="#FF0000"/>
<path d="M773.793 176C769.789 176 766.324 174.999 763.398 172.997C760.626 170.841 759.24 167.761 759.24 163.757C759.24 160.215 760.472 157.058 762.936 154.286L829.464 77.825H771.021C768.249 77.825 765.939 76.901 764.091 75.053C762.243 73.205 761.319 70.895 761.319 68.123C761.319 65.351 762.243 63.041 764.091 61.193C765.939 59.191 768.249 58.19 771.021 58.19H841.014C845.018 58.19 848.252 59.422 850.716 61.886C853.18 64.196 854.412 67.353 854.412 71.357C854.412 74.899 853.334 77.979 851.178 80.597L786.498 156.365H845.865C848.637 156.365 850.947 157.366 852.795 159.368C854.797 161.216 855.798 163.526 855.798 166.298C855.798 169.07 854.797 171.38 852.795 173.228C850.947 175.076 848.637 176 845.865 176H773.793ZM888.842 176C884.838 176 881.373 174.999 878.447 172.997C875.675 170.841 874.289 167.761 874.289 163.757C874.289 160.215 875.521 157.058 877.985 154.286L944.513 77.825H886.07C883.298 77.825 880.988 76.901 879.14 75.053C877.292 73.205 876.368 70.895 876.368 68.123C876.368 65.351 877.292 63.041 879.14 61.193C880.988 59.191 883.298 58.19 886.07 58.19H956.063C960.067 58.19 963.301 59.422 965.765 61.886C968.229 64.196 969.461 67.353 969.461 71.357C969.461 74.899 968.383 77.979 966.227 80.597L901.547 156.365H960.914C963.686 156.365 965.996 157.366 967.844 159.368C969.846 161.216 970.847 163.526 970.847 166.298C970.847 169.07 969.846 171.38 967.844 173.228C965.996 175.076 963.686 176 960.914 176H888.842Z" fill="#6100FF"/>
<path d="M497 174.106L497.28 45.7051C497.28 45.7051 507.093 0.568538 549.426 0.00783582C591.759 -0.552867 603.534 29.1644 603.534 29.1644C603.534 29.1644 615.028 67.8963 589.516 82.1508C564.004 96.4054 588.775 81.5125 588.775 81.5125C588.775 81.5125 609.421 90.4679 613.533 108.597C617.645 126.727 613.533 141.492 613.533 141.492C613.533 141.492 610.823 149.435 606.898 154.481C602.973 159.528 598.487 165.415 586.432 172.144C574.377 178.872 528.68 174.667 528.68 174.667L529.24 152.239L569.611 151.398C569.611 151.398 590.918 150.276 593.441 125.605C595.964 100.934 567.088 96.1683 567.088 96.1683C567.088 96.1683 530.362 95.888 530.362 95.6077C530.362 95.3273 529.801 75.7027 529.801 75.7027L558.677 74.5813C558.677 74.5813 577.501 74.5665 582.507 56.3585C587.727 37.3742 574.547 26.5201 574.547 26.5201C574.547 26.5201 570.892 22.3114 554.192 19.6324C539.497 17.2752 527.839 31.1269 527.839 31.1269C527.839 31.1269 521.951 38.9767 521.951 42.9016C521.951 46.8265 521.671 174.106 521.671 174.106H497Z" fill="#6100FF"/>
<path d="M686.2 175.7C675.85 175.7 666.55 173.6 658.3 169.4C650.2 165.05 643.825 159.05 639.175 151.4C634.675 143.75 632.425 134.825 632.425 124.625V58.25H653.35V124.4C653.35 131.3 654.85 137.3 657.85 142.4C660.85 147.35 664.825 151.175 669.775 153.875C674.875 156.575 680.275 157.925 685.975 157.925C691.825 157.925 697.225 156.575 702.175 153.875C707.275 151.175 711.325 147.35 714.325 142.4C717.475 137.3 719.05 131.3 719.05 124.4V58.25H739.975V124.625C739.975 134.825 737.65 143.75 733 151.4C728.35 159.05 721.975 165.05 713.875 169.4C705.775 173.6 696.55 175.7 686.2 175.7Z" fill="#6100FF"/>
<path d="M0 174.106L0.280334 45.7051C0.280334 45.7051 10.0926 0.568538 52.4257 0.00783582C94.7587 -0.552867 106.534 29.1644 106.534 29.1644C106.534 29.1644 118.028 67.8963 92.5159 82.1508C67.004 96.4054 91.7753 81.5125 91.7753 81.5125C91.7753 81.5125 112.421 90.4679 116.533 108.597C120.645 126.727 116.533 141.492 116.533 141.492C116.533 141.492 113.823 149.435 109.898 154.481C105.973 159.528 101.487 165.415 89.4321 172.144C77.377 178.872 31.6797 174.667 31.6797 174.667L32.2404 152.239L72.611 151.398C72.611 151.398 93.9177 150.276 96.4409 125.605C98.964 100.934 70.0878 96.1683 70.0878 96.1683C70.0878 96.1683 33.3618 95.888 33.3618 95.6077C33.3618 95.3273 32.8011 75.7027 32.8011 75.7027L61.6773 74.5813C61.6773 74.5813 80.5012 74.5665 85.5071 56.3585C90.7265 37.3742 77.5466 26.5201 77.5466 26.5201C77.5466 26.5201 73.8916 22.3114 57.1917 19.6324C42.4971 17.2752 30.8386 31.1269 30.8386 31.1269C30.8386 31.1269 24.9512 38.9767 24.9512 42.9016C24.9512 46.8265 24.6709 174.106 24.6709 174.106H0Z" fill="#FF0000"/>
</svg>
