<svg width="987" height="308" viewBox="0 0 987 308" fill="none" xmlns="http://www.w3.org/2000/svg">
<path d="M172.583 228.285C169.811 228.285 167.424 227.284 165.422 225.282C163.574 223.28 162.65 220.893 162.65 218.121C162.65 216.735 162.881 215.503 163.343 214.425L178.358 175.848L134.93 70.05C134.776 69.434 134.545 68.741 134.237 67.971C134.083 67.201 134.006 66.431 134.006 65.661C134.006 62.735 135.007 60.271 137.009 58.269C139.011 56.113 141.475 55.035 144.401 55.035C146.557 55.035 148.482 55.651 150.176 56.883C152.024 58.115 153.333 59.655 154.103 61.503L189.677 149.745L225.944 61.965C226.868 59.809 228.1 58.115 229.64 56.883C231.334 55.651 233.336 55.035 235.646 55.035C238.572 55.035 241.036 56.113 243.038 58.269C245.04 60.271 246.041 62.735 246.041 65.661C246.041 67.047 245.81 68.356 245.348 69.588L182.285 221.124C181.361 223.126 180.129 224.82 178.589 226.206C177.049 227.592 175.047 228.285 172.583 228.285Z" fill="#FF0000"/>
<path d="M312.575 176C302.375 176 294.35 173.075 288.5 167.225C282.8 161.375 279.95 153.425 279.95 143.375V32.45H300.65V142.025C300.65 146.975 302 150.95 304.7 153.95C307.55 156.8 311.45 158.225 316.4 158.225H339.575V176H312.575ZM260.15 79.025V61.25H340.025V79.025H260.15Z" fill="#FF0000"/>
<path d="M459.415 120.444L480.442 121.285L478.759 134.742C478.759 134.742 471.19 159.973 454.369 166.982C437.548 173.991 431.38 179.037 405.588 173.991C379.796 168.945 372.787 155.207 363.535 138.386C354.283 121.565 363.815 76.7958 384.842 66.0991C405.868 55.4024 416.521 52.3185 438.389 57.3648C460.256 62.4112 477.918 91.007 477.918 91.007L399.14 134.742L389.047 119.322L446.239 87.3624C446.239 87.3624 444.276 76.7091 425.212 73.6252C406.148 70.5414 391.851 87.3624 391.851 87.3624C391.851 87.3624 376.712 110.568 382.599 126.72C388.486 142.872 396.616 152.965 411.195 155.207C425.773 157.45 447.921 157.731 456.892 132.779L459.415 120.444Z" fill="#FF0000"/>
<path d="M779.793 176C775.789 176 772.324 174.999 769.398 172.997C766.626 170.841 765.24 167.761 765.24 163.757C765.24 160.215 766.472 157.058 768.936 154.286L835.464 77.825H777.021C774.249 77.825 771.939 76.901 770.091 75.053C768.243 73.205 767.319 70.895 767.319 68.123C767.319 65.351 768.243 63.041 770.091 61.193C771.939 59.191 774.249 58.19 777.021 58.19H847.014C851.018 58.19 854.252 59.422 856.716 61.886C859.18 64.196 860.412 67.353 860.412 71.357C860.412 74.899 859.334 77.979 857.178 80.597L792.498 156.365H851.865C854.637 156.365 856.947 157.366 858.795 159.368C860.797 161.216 861.798 163.526 861.798 166.298C861.798 169.07 860.797 171.38 858.795 173.228C856.947 175.076 854.637 176 851.865 176H779.793ZM894.842 176C890.838 176 887.373 174.999 884.447 172.997C881.675 170.841 880.289 167.761 880.289 163.757C880.289 160.215 881.521 157.058 883.985 154.286L950.513 77.825H892.07C889.298 77.825 886.988 76.901 885.14 75.053C883.292 73.205 882.368 70.895 882.368 68.123C882.368 65.351 883.292 63.041 885.14 61.193C886.988 59.191 889.298 58.19 892.07 58.19H962.063C966.067 58.19 969.301 59.422 971.765 61.886C974.229 64.196 975.461 67.353 975.461 71.357C975.461 74.899 974.383 77.979 972.227 80.597L907.547 156.365H966.914C969.686 156.365 971.996 157.366 973.844 159.368C975.846 161.216 976.847 163.526 976.847 166.298C976.847 169.07 975.846 171.38 973.844 173.228C971.996 175.076 969.686 176 966.914 176H894.842Z" fill="#6100FF"/>
<path d="M503 174.106L503.28 45.7051C503.28 45.7051 513.093 0.568538 555.426 0.00783582C597.759 -0.552867 609.534 29.1644 609.534 29.1644C609.534 29.1644 621.028 67.8963 595.516 82.1508C570.004 96.4054 594.775 81.5125 594.775 81.5125C594.775 81.5125 615.421 90.4679 619.533 108.597C623.645 126.727 619.533 141.492 619.533 141.492C619.533 141.492 616.823 149.435 612.898 154.481C608.973 159.528 604.487 165.415 592.432 172.144C580.377 178.872 534.68 174.667 534.68 174.667L535.24 152.239L575.611 151.398C575.611 151.398 596.918 150.276 599.441 125.605C601.964 100.934 573.088 96.1683 573.088 96.1683C573.088 96.1683 536.362 95.888 536.362 95.6077C536.362 95.3273 535.801 75.7027 535.801 75.7027L564.677 74.5813C564.677 74.5813 583.501 74.5665 588.507 56.3585C593.727 37.3742 580.547 26.5201 580.547 26.5201C580.547 26.5201 576.892 22.3114 560.192 19.6324C545.497 17.2752 533.839 31.1269 533.839 31.1269C533.839 31.1269 527.951 38.9767 527.951 42.9016C527.951 46.8265 527.671 174.106 527.671 174.106H503Z" fill="#6100FF"/>
<path d="M692.2 175.7C681.85 175.7 672.55 173.6 664.3 169.4C656.2 165.05 649.825 159.05 645.175 151.4C640.675 143.75 638.425 134.825 638.425 124.625V58.25H659.35V124.4C659.35 131.3 660.85 137.3 663.85 142.4C666.85 147.35 670.825 151.175 675.775 153.875C680.875 156.575 686.275 157.925 691.975 157.925C697.825 157.925 703.225 156.575 708.175 153.875C713.275 151.175 717.325 147.35 720.325 142.4C723.475 137.3 725.05 131.3 725.05 124.4V58.25H745.975V124.625C745.975 134.825 743.65 143.75 739 151.4C734.35 159.05 727.975 165.05 719.875 169.4C711.775 173.6 702.55 175.7 692.2 175.7Z" fill="#6100FF"/>
<path d="M9.088 290.32C8.27733 290.32 7.59467 290.043 7.04 289.488C6.48533 288.933 6.208 288.251 6.208 287.44V247.952C6.208 247.141 6.48533 246.459 7.04 245.904C7.59467 245.307 8.27733 245.008 9.088 245.008C9.89867 245.008 10.5813 245.307 11.136 245.904C11.7333 246.459 12.032 247.141 12.032 247.952V287.44C12.032 288.251 11.7333 288.933 11.136 289.488C10.5813 290.043 9.89867 290.32 9.088 290.32ZM25.561 290.32C24.7503 290.32 24.0677 290.043 23.513 289.488C22.9583 288.933 22.681 288.251 22.681 287.44V259.984C22.681 259.131 22.9583 258.427 23.513 257.872C24.0677 257.317 24.7503 257.04 25.561 257.04C26.3717 257.04 27.0543 257.317 27.609 257.872C28.2063 258.427 28.505 259.131 28.505 259.984V262.608C29.8703 261.115 31.4703 259.771 33.305 258.576C35.1823 257.339 37.5503 256.72 40.409 256.72C42.841 256.72 44.9103 257.296 46.617 258.448C48.3237 259.557 49.625 261.072 50.521 262.992C51.417 264.869 51.865 266.96 51.865 269.264V287.44C51.865 288.251 51.5663 288.933 50.969 289.488C50.4143 290.043 49.7317 290.32 48.921 290.32C48.1103 290.32 47.4277 290.043 46.873 289.488C46.3183 288.933 46.041 288.251 46.041 287.44V269.904C46.041 267.472 45.4863 265.573 44.377 264.208C43.3103 262.8 41.5183 262.096 39.001 262.096C36.697 262.096 34.6917 262.715 32.985 263.952C31.2783 265.189 29.785 266.619 28.505 268.24V287.44C28.505 288.251 28.2063 288.933 27.609 289.488C27.0543 290.043 26.3717 290.32 25.561 290.32ZM64.561 290.32C63.7503 290.32 63.0677 290.043 62.513 289.488C61.9583 288.933 61.681 288.251 61.681 287.44V259.984C61.681 259.131 61.9583 258.427 62.513 257.872C63.0677 257.317 63.7503 257.04 64.561 257.04C65.3717 257.04 66.0543 257.317 66.609 257.872C67.2063 258.427 67.505 259.131 67.505 259.984V262.608C68.8703 261.115 70.4703 259.771 72.305 258.576C74.1823 257.339 76.5503 256.72 79.409 256.72C81.841 256.72 83.9103 257.296 85.617 258.448C87.3237 259.557 88.625 261.072 89.521 262.992C90.417 264.869 90.865 266.96 90.865 269.264V287.44C90.865 288.251 90.5663 288.933 89.969 289.488C89.4143 290.043 88.7317 290.32 87.921 290.32C87.1103 290.32 86.4277 290.043 85.873 289.488C85.3183 288.933 85.041 288.251 85.041 287.44V269.904C85.041 267.472 84.4863 265.573 83.377 264.208C82.3103 262.8 80.5183 262.096 78.001 262.096C75.697 262.096 73.6917 262.715 71.985 263.952C70.2783 265.189 68.785 266.619 67.505 268.24V287.44C67.505 288.251 67.2063 288.933 66.609 289.488C66.0543 290.043 65.3717 290.32 64.561 290.32ZM115.081 290.64C111.796 290.64 108.916 289.936 106.441 288.528C103.966 287.077 102.046 285.093 100.681 282.576C99.3583 280.016 98.697 277.051 98.697 273.68C98.697 270.309 99.3583 267.365 100.681 264.848C102.046 262.288 103.966 260.304 106.441 258.896C108.916 257.445 111.796 256.72 115.081 256.72C118.366 256.72 121.225 257.445 123.657 258.896C126.132 260.304 128.052 262.288 129.417 264.848C130.782 267.365 131.465 270.309 131.465 273.68C131.465 277.051 130.782 280.016 129.417 282.576C128.052 285.093 126.132 287.077 123.657 288.528C121.225 289.936 118.366 290.64 115.081 290.64ZM115.081 285.328C116.702 285.328 118.324 284.944 119.945 284.176C121.566 283.408 122.91 282.171 123.977 280.464C125.086 278.715 125.641 276.432 125.641 273.616C125.641 270.8 125.086 268.539 123.977 266.832C122.91 265.125 121.566 263.909 119.945 263.184C118.324 262.416 116.702 262.032 115.081 262.032C113.46 262.032 111.817 262.416 110.153 263.184C108.532 263.909 107.188 265.125 106.121 266.832C105.054 268.539 104.521 270.8 104.521 273.616C104.521 276.432 105.054 278.715 106.121 280.464C107.188 282.171 108.532 283.408 110.153 284.176C111.817 284.944 113.46 285.328 115.081 285.328ZM150.765 290.32C149.954 290.32 149.229 290.085 148.589 289.616C147.992 289.147 147.544 288.592 147.245 287.952L136.109 261.328C135.896 260.816 135.789 260.368 135.789 259.984C135.789 259.173 136.066 258.491 136.621 257.936C137.176 257.339 137.858 257.04 138.669 257.04C139.266 257.04 139.8 257.211 140.269 257.552C140.781 257.851 141.122 258.235 141.293 258.704L151.085 283.536L160.877 258.704C161.09 258.235 161.432 257.851 161.901 257.552C162.413 257.211 162.946 257.04 163.501 257.04C164.312 257.04 164.994 257.339 165.549 257.936C166.104 258.491 166.381 259.173 166.381 259.984C166.381 260.368 166.274 260.816 166.061 261.328L154.925 287.952C154.626 288.592 154.157 289.147 153.517 289.616C152.92 290.085 152.216 290.32 151.405 290.32H150.765ZM181.064 290.64C179.229 290.64 177.501 290.256 175.88 289.488C174.301 288.72 173.021 287.632 172.04 286.224C171.101 284.773 170.632 283.045 170.632 281.04C170.632 278.011 171.826 275.536 174.216 273.616C176.648 271.653 180.36 270.672 185.352 270.672H193.096V270.16C193.096 267.301 192.392 265.275 190.984 264.08C189.576 262.843 187.421 262.224 184.52 262.224C182.728 262.224 181.149 262.395 179.784 262.736C178.461 263.035 177.202 263.376 176.008 263.76C175.666 263.845 175.389 263.888 175.176 263.888C174.536 263.888 173.981 263.653 173.512 263.184C173.042 262.715 172.808 262.139 172.808 261.456C172.808 260.304 173.362 259.493 174.472 259.024C175.965 258.384 177.608 257.851 179.4 257.424C181.234 256.955 183.282 256.72 185.544 256.72C188.658 256.72 191.197 257.339 193.16 258.576C195.122 259.813 196.573 261.392 197.512 263.312C198.45 265.232 198.92 267.237 198.92 269.328V287.44C198.92 288.251 198.621 288.933 198.024 289.488C197.469 290.043 196.786 290.32 195.976 290.32C195.165 290.32 194.482 290.043 193.928 289.488C193.373 288.933 193.096 288.251 193.096 287.44V285.776C191.944 286.971 190.408 288.08 188.488 289.104C186.568 290.128 184.093 290.64 181.064 290.64ZM183.24 285.52C185.245 285.52 187.122 285.029 188.872 284.048C190.621 283.067 192.029 281.957 193.096 280.72V275.344H186.12C183.133 275.344 180.765 275.728 179.016 276.496C177.309 277.264 176.456 278.565 176.456 280.4C176.456 281.765 176.925 282.96 177.864 283.984C178.845 285.008 180.637 285.52 183.24 285.52ZM219.195 290.64C218.427 290.64 217.51 290.555 216.443 290.384C215.419 290.256 214.395 289.936 213.371 289.424C212.39 288.869 211.558 288.016 210.875 286.864C210.192 285.712 209.851 284.155 209.851 282.192V262.352H205.307C204.496 262.352 204.091 261.947 204.091 261.136C204.091 260.709 204.283 260.347 204.667 260.048L213.371 251.536C213.456 251.451 213.584 251.344 213.755 251.216C213.968 251.045 214.203 250.96 214.459 250.96C214.8 250.96 215.078 251.088 215.291 251.344C215.547 251.6 215.675 251.899 215.675 252.24V257.36H222.907C223.632 257.36 224.23 257.595 224.699 258.064C225.168 258.533 225.403 259.131 225.403 259.856C225.403 260.539 225.168 261.136 224.699 261.648C224.23 262.117 223.632 262.352 222.907 262.352H215.675V281.68C215.675 282.917 215.91 283.813 216.379 284.368C216.848 284.923 217.403 285.264 218.043 285.392C218.726 285.477 219.323 285.52 219.835 285.52C220.859 285.52 221.606 285.435 222.075 285.264C222.587 285.051 223.12 284.944 223.675 284.944C224.272 284.944 224.806 285.157 225.275 285.584C225.744 286.011 225.979 286.565 225.979 287.248C225.979 288.229 225.488 288.976 224.507 289.488C223.739 289.829 222.907 290.107 222.011 290.32C221.158 290.533 220.219 290.64 219.195 290.64ZM235.121 250.704C234.225 250.704 233.457 250.384 232.817 249.744C232.177 249.104 231.857 248.336 231.857 247.44V247.184C231.857 246.288 232.177 245.52 232.817 244.88C233.457 244.24 234.225 243.92 235.121 243.92H235.505C236.401 243.92 237.169 244.24 237.809 244.88C238.449 245.52 238.769 246.288 238.769 247.184V247.44C238.769 248.336 238.449 249.104 237.809 249.744C237.169 250.384 236.401 250.704 235.505 250.704H235.121ZM235.249 290.32C234.438 290.32 233.755 290.043 233.201 289.488C232.646 288.933 232.369 288.251 232.369 287.44V259.984C232.369 259.131 232.646 258.427 233.201 257.872C233.755 257.317 234.438 257.04 235.249 257.04C236.102 257.04 236.806 257.317 237.361 257.872C237.915 258.427 238.193 259.131 238.193 259.984V287.44C238.193 288.251 237.915 288.933 237.361 289.488C236.806 290.043 236.102 290.32 235.249 290.32ZM262.706 290.64C259.421 290.64 256.541 289.936 254.066 288.528C251.591 287.077 249.671 285.093 248.306 282.576C246.983 280.016 246.322 277.051 246.322 273.68C246.322 270.309 246.983 267.365 248.306 264.848C249.671 262.288 251.591 260.304 254.066 258.896C256.541 257.445 259.421 256.72 262.706 256.72C265.991 256.72 268.85 257.445 271.282 258.896C273.757 260.304 275.677 262.288 277.042 264.848C278.407 267.365 279.09 270.309 279.09 273.68C279.09 277.051 278.407 280.016 277.042 282.576C275.677 285.093 273.757 287.077 271.282 288.528C268.85 289.936 265.991 290.64 262.706 290.64ZM262.706 285.328C264.327 285.328 265.949 284.944 267.57 284.176C269.191 283.408 270.535 282.171 271.602 280.464C272.711 278.715 273.266 276.432 273.266 273.616C273.266 270.8 272.711 268.539 271.602 266.832C270.535 265.125 269.191 263.909 267.57 263.184C265.949 262.416 264.327 262.032 262.706 262.032C261.085 262.032 259.442 262.416 257.778 263.184C256.157 263.909 254.813 265.125 253.746 266.832C252.679 268.539 252.146 270.8 252.146 273.616C252.146 276.432 252.679 278.715 253.746 280.464C254.813 282.171 256.157 283.408 257.778 284.176C259.442 284.944 261.085 285.328 262.706 285.328ZM290.124 290.32C289.313 290.32 288.63 290.043 288.076 289.488C287.521 288.933 287.244 288.251 287.244 287.44V259.984C287.244 259.131 287.521 258.427 288.076 257.872C288.63 257.317 289.313 257.04 290.124 257.04C290.934 257.04 291.617 257.317 292.172 257.872C292.769 258.427 293.068 259.131 293.068 259.984V262.608C294.433 261.115 296.033 259.771 297.868 258.576C299.745 257.339 302.113 256.72 304.972 256.72C307.404 256.72 309.473 257.296 311.18 258.448C312.886 259.557 314.188 261.072 315.083 262.992C315.98 264.869 316.428 266.96 316.428 269.264V287.44C316.428 288.251 316.129 288.933 315.532 289.488C314.977 290.043 314.294 290.32 313.484 290.32C312.673 290.32 311.99 290.043 311.436 289.488C310.881 288.933 310.604 288.251 310.604 287.44V269.904C310.604 267.472 310.049 265.573 308.94 264.208C307.873 262.8 306.081 262.096 303.564 262.096C301.26 262.096 299.254 262.715 297.548 263.952C295.841 265.189 294.348 266.619 293.068 268.24V287.44C293.068 288.251 292.769 288.933 292.172 289.488C291.617 290.043 290.934 290.32 290.124 290.32Z" fill="#202020"/>
<path d="M397.92 290.64C393.696 290.64 389.877 289.723 386.464 287.888C383.093 286.011 380.427 283.365 378.464 279.952C376.501 276.496 375.52 272.4 375.52 267.664C375.52 262.885 376.501 258.789 378.464 255.376C380.427 251.963 383.093 249.339 386.464 247.504C389.877 245.627 393.696 244.688 397.92 244.688C401.077 244.688 403.808 245.072 406.112 245.84C408.416 246.608 410.549 247.547 412.512 248.656C412.939 248.869 413.259 249.168 413.472 249.552C413.728 249.893 413.877 250.363 413.92 250.96C413.963 251.643 413.749 252.24 413.28 252.752C412.811 253.264 412.171 253.52 411.36 253.52C410.933 253.52 410.549 253.435 410.208 253.264C408.501 252.368 406.752 251.643 404.96 251.088C403.168 250.533 401.013 250.256 398.496 250.256C394.741 250.256 391.584 251.024 389.024 252.56C386.464 254.096 384.544 256.187 383.264 258.832C381.984 261.435 381.344 264.379 381.344 267.664C381.344 270.949 381.984 273.915 383.264 276.56C384.544 279.163 386.464 281.232 389.024 282.768C391.584 284.304 394.741 285.072 398.496 285.072C401.013 285.072 403.168 284.795 404.96 284.24C406.752 283.685 408.501 282.96 410.208 282.064C410.549 281.893 410.933 281.808 411.36 281.808C412.171 281.808 412.811 282.064 413.28 282.576C413.749 283.088 413.963 283.685 413.92 284.368C413.877 284.965 413.728 285.456 413.472 285.84C413.259 286.181 412.939 286.459 412.512 286.672C410.549 287.781 408.416 288.72 406.112 289.488C403.808 290.256 401.077 290.64 397.92 290.64ZM423.999 290.32C423.188 290.32 422.505 290.043 421.951 289.488C421.396 288.933 421.119 288.251 421.119 287.44V259.984C421.119 259.173 421.396 258.491 421.951 257.936C422.505 257.339 423.188 257.04 423.999 257.04C424.809 257.04 425.492 257.339 426.047 257.936C426.644 258.491 426.943 259.173 426.943 259.984V262.736C428.095 261.2 429.503 259.813 431.167 258.576C432.831 257.339 434.772 256.72 436.991 256.72H437.311C438.121 256.72 438.783 256.997 439.295 257.552C439.849 258.107 440.127 258.789 440.127 259.6C440.127 260.411 439.849 261.072 439.295 261.584C438.74 262.096 438.036 262.352 437.183 262.352H436.863C434.772 262.352 432.873 262.885 431.167 263.952C429.46 264.976 428.052 266.32 426.943 267.984V287.44C426.943 288.251 426.644 288.933 426.047 289.488C425.492 290.043 424.809 290.32 423.999 290.32ZM459.273 290.64C454.068 290.64 449.993 289.168 447.049 286.224C444.148 283.237 442.697 279.056 442.697 273.68C442.697 270.779 443.23 268.048 444.297 265.488C445.364 262.885 447.028 260.773 449.289 259.152C451.55 257.531 454.452 256.72 457.993 256.72C461.278 256.72 464.052 257.488 466.313 259.024C468.574 260.517 470.281 262.48 471.433 264.912C472.628 267.344 473.225 269.989 473.225 272.848C473.225 273.659 472.948 274.341 472.393 274.896C471.881 275.451 471.177 275.728 470.281 275.728H448.585C448.926 278.587 450.014 280.891 451.849 282.64C453.684 284.347 456.329 285.2 459.785 285.2C461.705 285.2 463.326 285.029 464.649 284.688C465.972 284.304 467.23 283.813 468.425 283.216C468.766 283.045 469.15 282.96 469.577 282.96C470.26 282.96 470.857 283.195 471.369 283.664C471.881 284.133 472.137 284.731 472.137 285.456C472.137 285.968 471.966 286.437 471.625 286.864C471.326 287.248 470.942 287.568 470.473 287.824C469.065 288.635 467.529 289.317 465.865 289.872C464.244 290.384 462.046 290.64 459.273 290.64ZM448.585 270.992H467.465C467.337 268.773 466.761 266.981 465.737 265.616C464.756 264.251 463.561 263.248 462.153 262.608C460.745 261.968 459.358 261.648 457.993 261.648C456.628 261.648 455.241 261.968 453.833 262.608C452.425 263.248 451.23 264.251 450.249 265.616C449.268 266.981 448.713 268.773 448.585 270.992ZM489.251 290.64C487.416 290.64 485.688 290.256 484.067 289.488C482.488 288.72 481.208 287.632 480.227 286.224C479.288 284.773 478.819 283.045 478.819 281.04C478.819 278.011 480.014 275.536 482.403 273.616C484.835 271.653 488.547 270.672 493.539 270.672H501.283V270.16C501.283 267.301 500.579 265.275 499.171 264.08C497.763 262.843 495.608 262.224 492.707 262.224C490.915 262.224 489.336 262.395 487.971 262.736C486.648 263.035 485.39 263.376 484.195 263.76C483.854 263.845 483.576 263.888 483.363 263.888C482.723 263.888 482.168 263.653 481.699 263.184C481.23 262.715 480.995 262.139 480.995 261.456C480.995 260.304 481.55 259.493 482.659 259.024C484.152 258.384 485.795 257.851 487.587 257.424C489.422 256.955 491.47 256.72 493.731 256.72C496.846 256.72 499.384 257.339 501.347 258.576C503.31 259.813 504.76 261.392 505.699 263.312C506.638 265.232 507.107 267.237 507.107 269.328V287.44C507.107 288.251 506.808 288.933 506.211 289.488C505.656 290.043 504.974 290.32 504.163 290.32C503.352 290.32 502.67 290.043 502.115 289.488C501.56 288.933 501.283 288.251 501.283 287.44V285.776C500.131 286.971 498.595 288.08 496.675 289.104C494.755 290.128 492.28 290.64 489.251 290.64ZM491.427 285.52C493.432 285.52 495.31 285.029 497.059 284.048C498.808 283.067 500.216 281.957 501.283 280.72V275.344H494.307C491.32 275.344 488.952 275.728 487.203 276.496C485.496 277.264 484.643 278.565 484.643 280.4C484.643 281.765 485.112 282.96 486.051 283.984C487.032 285.008 488.824 285.52 491.427 285.52ZM527.383 290.64C526.615 290.64 525.697 290.555 524.631 290.384C523.607 290.256 522.583 289.936 521.559 289.424C520.577 288.869 519.745 288.016 519.062 286.864C518.38 285.712 518.039 284.155 518.039 282.192V262.352H513.495C512.684 262.352 512.279 261.947 512.279 261.136C512.279 260.709 512.471 260.347 512.855 260.048L521.559 251.536C521.644 251.451 521.772 251.344 521.943 251.216C522.156 251.045 522.391 250.96 522.647 250.96C522.988 250.96 523.265 251.088 523.479 251.344C523.735 251.6 523.863 251.899 523.863 252.24V257.36H531.095C531.82 257.36 532.417 257.595 532.887 258.064C533.356 258.533 533.591 259.131 533.591 259.856C533.591 260.539 533.356 261.136 532.887 261.648C532.417 262.117 531.82 262.352 531.095 262.352H523.863V281.68C523.863 282.917 524.097 283.813 524.567 284.368C525.036 284.923 525.591 285.264 526.231 285.392C526.913 285.477 527.511 285.52 528.023 285.52C529.047 285.52 529.793 285.435 530.263 285.264C530.775 285.051 531.308 284.944 531.863 284.944C532.46 284.944 532.993 285.157 533.463 285.584C533.932 286.011 534.167 286.565 534.167 287.248C534.167 288.229 533.676 288.976 532.695 289.488C531.927 289.829 531.095 290.107 530.199 290.32C529.345 290.533 528.407 290.64 527.383 290.64ZM543.308 250.704C542.412 250.704 541.644 250.384 541.004 249.744C540.364 249.104 540.044 248.336 540.044 247.44V247.184C540.044 246.288 540.364 245.52 541.004 244.88C541.644 244.24 542.412 243.92 543.308 243.92H543.692C544.588 243.92 545.356 244.24 545.996 244.88C546.636 245.52 546.956 246.288 546.956 247.184V247.44C546.956 248.336 546.636 249.104 545.996 249.744C545.356 250.384 544.588 250.704 543.692 250.704H543.308ZM543.436 290.32C542.625 290.32 541.943 290.043 541.388 289.488C540.833 288.933 540.556 288.251 540.556 287.44V259.984C540.556 259.131 540.833 258.427 541.388 257.872C541.943 257.317 542.625 257.04 543.436 257.04C544.289 257.04 544.993 257.317 545.548 257.872C546.103 258.427 546.38 259.131 546.38 259.984V287.44C546.38 288.251 546.103 288.933 545.548 289.488C544.993 290.043 544.289 290.32 543.436 290.32ZM570.894 290.64C567.608 290.64 564.728 289.936 562.254 288.528C559.779 287.077 557.859 285.093 556.494 282.576C555.171 280.016 554.51 277.051 554.51 273.68C554.51 270.309 555.171 267.365 556.494 264.848C557.859 262.288 559.779 260.304 562.254 258.896C564.728 257.445 567.608 256.72 570.894 256.72C574.179 256.72 577.038 257.445 579.47 258.896C581.944 260.304 583.864 262.288 585.229 264.848C586.595 267.365 587.278 270.309 587.278 273.68C587.278 277.051 586.595 280.016 585.229 282.576C583.864 285.093 581.944 287.077 579.47 288.528C577.038 289.936 574.179 290.64 570.894 290.64ZM570.894 285.328C572.515 285.328 574.136 284.944 575.758 284.176C577.379 283.408 578.723 282.171 579.79 280.464C580.899 278.715 581.454 276.432 581.454 273.616C581.454 270.8 580.899 268.539 579.79 266.832C578.723 265.125 577.379 263.909 575.758 263.184C574.136 262.416 572.515 262.032 570.894 262.032C569.272 262.032 567.63 262.416 565.966 263.184C564.344 263.909 563 265.125 561.934 266.832C560.867 268.539 560.334 270.8 560.334 273.616C560.334 276.432 560.867 278.715 561.934 280.464C563 282.171 564.344 283.408 565.966 284.176C567.63 284.944 569.272 285.328 570.894 285.328ZM598.311 290.32C597.5 290.32 596.818 290.043 596.263 289.488C595.708 288.933 595.431 288.251 595.431 287.44V259.984C595.431 259.131 595.708 258.427 596.263 257.872C596.818 257.317 597.5 257.04 598.311 257.04C599.122 257.04 599.804 257.317 600.359 257.872C600.956 258.427 601.255 259.131 601.255 259.984V262.608C602.62 261.115 604.22 259.771 606.055 258.576C607.932 257.339 610.3 256.72 613.159 256.72C615.591 256.72 617.66 257.296 619.367 258.448C621.074 259.557 622.375 261.072 623.271 262.992C624.167 264.869 624.615 266.96 624.615 269.264V287.44C624.615 288.251 624.316 288.933 623.719 289.488C623.164 290.043 622.482 290.32 621.671 290.32C620.86 290.32 620.178 290.043 619.623 289.488C619.068 288.933 618.791 288.251 618.791 287.44V269.904C618.791 267.472 618.236 265.573 617.127 264.208C616.06 262.8 614.268 262.096 611.751 262.096C609.447 262.096 607.442 262.715 605.735 263.952C604.028 265.189 602.535 266.619 601.255 268.24V287.44C601.255 288.251 600.956 288.933 600.359 289.488C599.804 290.043 599.122 290.32 598.311 290.32Z" fill="#202020"/>
<path d="M689.088 290C688.277 290 687.595 289.723 687.04 289.168C686.485 288.613 686.208 287.931 686.208 287.12V248.272C686.208 247.461 686.485 246.779 687.04 246.224C687.595 245.627 688.277 245.328 689.088 245.328H714.752C715.52 245.328 716.16 245.605 716.672 246.16C717.227 246.672 717.504 247.312 717.504 248.08C717.504 248.848 717.227 249.488 716.672 250C716.16 250.512 715.52 250.768 714.752 250.768H692.032V264.912H712.448C713.216 264.912 713.856 265.189 714.368 265.744C714.923 266.256 715.2 266.896 715.2 267.664C715.2 268.432 714.923 269.072 714.368 269.584C713.856 270.096 713.216 270.352 712.448 270.352H692.032V284.56H714.752C715.52 284.56 716.16 284.837 716.672 285.392C717.227 285.904 717.504 286.544 717.504 287.312C717.504 288.08 717.227 288.72 716.672 289.232C716.16 289.744 715.52 290 714.752 290H689.088ZM726.829 290.32C726.018 290.32 725.357 290.064 724.845 289.552C724.333 288.997 724.077 288.272 724.077 287.376C724.077 286.736 724.29 286.139 724.717 285.584L734.637 273.872L724.717 261.776C724.247 261.179 724.013 260.56 724.013 259.92C724.013 259.024 724.29 258.32 724.845 257.808C725.399 257.296 726.082 257.04 726.893 257.04C727.917 257.04 728.685 257.403 729.197 258.128L738.157 269.2L747.053 258.128C747.565 257.403 748.311 257.04 749.293 257.04C750.146 257.04 750.85 257.317 751.405 257.872C751.959 258.384 752.237 259.024 752.237 259.792C752.237 260.432 752.023 261.029 751.597 261.584L741.485 273.488L751.469 285.52C751.725 285.819 751.895 286.139 751.981 286.48C752.109 286.821 752.173 287.12 752.173 287.376C752.173 288.101 751.917 288.784 751.405 289.424C750.935 290.021 750.21 290.32 749.229 290.32C748.29 290.32 747.543 289.936 746.989 289.168L737.901 278.288L729.325 289.04C728.685 289.893 727.853 290.32 726.829 290.32ZM774.273 290.64C769.068 290.64 764.993 289.168 762.049 286.224C759.148 283.237 757.697 279.056 757.697 273.68C757.697 270.779 758.23 268.048 759.297 265.488C760.364 262.885 762.028 260.773 764.289 259.152C766.55 257.531 769.452 256.72 772.993 256.72C776.278 256.72 779.052 257.488 781.313 259.024C783.574 260.517 785.281 262.48 786.433 264.912C787.628 267.344 788.225 269.989 788.225 272.848C788.225 273.659 787.948 274.341 787.393 274.896C786.881 275.451 786.177 275.728 785.281 275.728H763.585C763.926 278.587 765.014 280.891 766.849 282.64C768.684 284.347 771.329 285.2 774.785 285.2C776.705 285.2 778.326 285.029 779.649 284.688C780.972 284.304 782.23 283.813 783.425 283.216C783.766 283.045 784.15 282.96 784.577 282.96C785.26 282.96 785.857 283.195 786.369 283.664C786.881 284.133 787.137 284.731 787.137 285.456C787.137 285.968 786.966 286.437 786.625 286.864C786.326 287.248 785.942 287.568 785.473 287.824C784.065 288.635 782.529 289.317 780.865 289.872C779.244 290.384 777.046 290.64 774.273 290.64ZM763.585 270.992H782.465C782.337 268.773 781.761 266.981 780.737 265.616C779.756 264.251 778.561 263.248 777.153 262.608C775.745 261.968 774.358 261.648 772.993 261.648C771.628 261.648 770.241 261.968 768.833 262.608C767.425 263.248 766.23 264.251 765.249 265.616C764.268 266.981 763.713 268.773 763.585 270.992ZM811.035 290.64C808.006 290.64 805.19 289.979 802.587 288.656C799.984 287.291 797.894 285.349 796.315 282.832C794.736 280.272 793.947 277.221 793.947 273.68C793.947 270.096 794.736 267.045 796.315 264.528C797.894 262.011 799.984 260.091 802.587 258.768C805.19 257.403 808.006 256.72 811.035 256.72C813.552 256.72 815.643 257.061 817.307 257.744C819.014 258.384 820.4 259.067 821.467 259.792C822.32 260.347 822.747 261.093 822.747 262.032C822.747 262.629 822.512 263.205 822.043 263.76C821.574 264.315 820.998 264.592 820.315 264.592C819.846 264.592 819.376 264.464 818.907 264.208C817.798 263.611 816.71 263.12 815.643 262.736C814.576 262.352 813.211 262.16 811.547 262.16C807.835 262.16 804.934 263.227 802.843 265.36C800.795 267.493 799.771 270.267 799.771 273.68C799.771 277.093 800.795 279.867 802.843 282C804.934 284.133 807.835 285.2 811.547 285.2C813.211 285.2 814.576 285.008 815.643 284.624C816.71 284.197 817.798 283.707 818.907 283.152C819.376 282.896 819.846 282.768 820.315 282.768C820.998 282.768 821.574 283.045 822.043 283.6C822.512 284.155 822.747 284.731 822.747 285.328C822.747 286.267 822.32 287.013 821.467 287.568C820.4 288.251 819.014 288.933 817.307 289.616C815.643 290.299 813.552 290.64 811.035 290.64ZM841.192 290.64C838.76 290.64 836.691 290.085 834.984 288.976C833.277 287.824 831.976 286.288 831.08 284.368C830.184 282.448 829.736 280.357 829.736 278.096V259.92C829.736 259.109 830.013 258.427 830.568 257.872C831.165 257.317 831.869 257.04 832.68 257.04C833.491 257.04 834.173 257.317 834.728 257.872C835.283 258.427 835.56 259.109 835.56 259.92V277.456C835.56 279.888 836.115 281.808 837.224 283.216C838.333 284.581 840.125 285.264 842.6 285.264C844.904 285.264 846.909 284.645 848.616 283.408C850.323 282.128 851.816 280.699 853.096 279.12V259.92C853.096 259.109 853.373 258.427 853.928 257.872C854.525 257.317 855.229 257.04 856.04 257.04C856.851 257.04 857.533 257.317 858.088 257.872C858.643 258.427 858.92 259.109 858.92 259.92V287.376C858.92 288.187 858.643 288.891 858.088 289.488C857.533 290.043 856.851 290.32 856.04 290.32C855.229 290.32 854.525 290.043 853.928 289.488C853.373 288.891 853.096 288.187 853.096 287.376V284.752C851.773 286.203 850.173 287.547 848.296 288.784C846.419 290.021 844.051 290.64 841.192 290.64ZM880.32 290.64C879.552 290.64 878.635 290.555 877.568 290.384C876.544 290.256 875.52 289.936 874.496 289.424C873.515 288.869 872.683 288.016 872 286.864C871.317 285.712 870.976 284.155 870.976 282.192V262.352H866.432C865.621 262.352 865.216 261.947 865.216 261.136C865.216 260.709 865.408 260.347 865.792 260.048L874.496 251.536C874.581 251.451 874.709 251.344 874.88 251.216C875.093 251.045 875.328 250.96 875.584 250.96C875.925 250.96 876.203 251.088 876.416 251.344C876.672 251.6 876.8 251.899 876.8 252.24V257.36H884.032C884.757 257.36 885.355 257.595 885.824 258.064C886.293 258.533 886.528 259.131 886.528 259.856C886.528 260.539 886.293 261.136 885.824 261.648C885.355 262.117 884.757 262.352 884.032 262.352H876.8V281.68C876.8 282.917 877.035 283.813 877.504 284.368C877.973 284.923 878.528 285.264 879.168 285.392C879.851 285.477 880.448 285.52 880.96 285.52C881.984 285.52 882.731 285.435 883.2 285.264C883.712 285.051 884.245 284.944 884.8 284.944C885.397 284.944 885.931 285.157 886.4 285.584C886.869 286.011 887.104 286.565 887.104 287.248C887.104 288.229 886.613 288.976 885.632 289.488C884.864 289.829 884.032 290.107 883.136 290.32C882.283 290.533 881.344 290.64 880.32 290.64ZM896.246 250.704C895.35 250.704 894.582 250.384 893.942 249.744C893.302 249.104 892.982 248.336 892.982 247.44V247.184C892.982 246.288 893.302 245.52 893.942 244.88C894.582 244.24 895.35 243.92 896.246 243.92H896.63C897.526 243.92 898.294 244.24 898.934 244.88C899.574 245.52 899.894 246.288 899.894 247.184V247.44C899.894 248.336 899.574 249.104 898.934 249.744C898.294 250.384 897.526 250.704 896.63 250.704H896.246ZM896.374 290.32C895.563 290.32 894.88 290.043 894.326 289.488C893.771 288.933 893.494 288.251 893.494 287.44V259.984C893.494 259.131 893.771 258.427 894.326 257.872C894.88 257.317 895.563 257.04 896.374 257.04C897.227 257.04 897.931 257.317 898.486 257.872C899.04 258.427 899.318 259.131 899.318 259.984V287.44C899.318 288.251 899.04 288.933 898.486 289.488C897.931 290.043 897.227 290.32 896.374 290.32ZM923.831 290.64C920.546 290.64 917.666 289.936 915.191 288.528C912.716 287.077 910.796 285.093 909.431 282.576C908.108 280.016 907.447 277.051 907.447 273.68C907.447 270.309 908.108 267.365 909.431 264.848C910.796 262.288 912.716 260.304 915.191 258.896C917.666 257.445 920.546 256.72 923.831 256.72C927.116 256.72 929.975 257.445 932.407 258.896C934.882 260.304 936.802 262.288 938.167 264.848C939.532 267.365 940.215 270.309 940.215 273.68C940.215 277.051 939.532 280.016 938.167 282.576C936.802 285.093 934.882 287.077 932.407 288.528C929.975 289.936 927.116 290.64 923.831 290.64ZM923.831 285.328C925.452 285.328 927.074 284.944 928.695 284.176C930.316 283.408 931.66 282.171 932.727 280.464C933.836 278.715 934.391 276.432 934.391 273.616C934.391 270.8 933.836 268.539 932.727 266.832C931.66 265.125 930.316 263.909 928.695 263.184C927.074 262.416 925.452 262.032 923.831 262.032C922.21 262.032 920.567 262.416 918.903 263.184C917.282 263.909 915.938 265.125 914.871 266.832C913.804 268.539 913.271 270.8 913.271 273.616C913.271 276.432 913.804 278.715 914.871 280.464C915.938 282.171 917.282 283.408 918.903 284.176C920.567 284.944 922.21 285.328 923.831 285.328ZM951.249 290.32C950.438 290.32 949.755 290.043 949.201 289.488C948.646 288.933 948.369 288.251 948.369 287.44V259.984C948.369 259.131 948.646 258.427 949.201 257.872C949.755 257.317 950.438 257.04 951.249 257.04C952.059 257.04 952.742 257.317 953.297 257.872C953.894 258.427 954.193 259.131 954.193 259.984V262.608C955.558 261.115 957.158 259.771 958.993 258.576C960.87 257.339 963.238 256.72 966.097 256.72C968.529 256.72 970.598 257.296 972.305 258.448C974.011 259.557 975.313 261.072 976.208 262.992C977.105 264.869 977.553 266.96 977.553 269.264V287.44C977.553 288.251 977.254 288.933 976.657 289.488C976.102 290.043 975.419 290.32 974.609 290.32C973.798 290.32 973.115 290.043 972.561 289.488C972.006 288.933 971.729 288.251 971.729 287.44V269.904C971.729 267.472 971.174 265.573 970.065 264.208C968.998 262.8 967.206 262.096 964.689 262.096C962.385 262.096 960.379 262.715 958.673 263.952C956.966 265.189 955.473 266.619 954.193 268.24V287.44C954.193 288.251 953.894 288.933 953.297 289.488C952.742 290.043 952.059 290.32 951.249 290.32Z" fill="#202020"/>
<path d="M349 298V237" stroke="#202020" stroke-width="3" stroke-miterlimit="3.99393"/>
<path d="M658 298V237" stroke="#202020" stroke-width="3" stroke-miterlimit="3.99393"/>
<path d="M6 174.106L6.28033 45.7051C6.28033 45.7051 16.0926 0.568538 58.4257 0.00783582C100.759 -0.552867 112.534 29.1644 112.534 29.1644C112.534 29.1644 124.028 67.8963 98.5159 82.1508C73.004 96.4054 97.7753 81.5125 97.7753 81.5125C97.7753 81.5125 118.421 90.4679 122.533 108.597C126.645 126.727 122.533 141.492 122.533 141.492C122.533 141.492 119.823 149.435 115.898 154.481C111.973 159.528 107.487 165.415 95.4321 172.144C83.377 178.872 37.6797 174.667 37.6797 174.667L38.2404 152.239L78.611 151.398C78.611 151.398 99.9177 150.276 102.441 125.605C104.964 100.934 76.0878 96.1683 76.0878 96.1683C76.0878 96.1683 39.3618 95.888 39.3618 95.6077C39.3618 95.3273 38.8011 75.7027 38.8011 75.7027L67.6773 74.5813C67.6773 74.5813 86.5012 74.5665 91.5071 56.3585C96.7265 37.3742 83.5466 26.5201 83.5466 26.5201C83.5466 26.5201 79.8916 22.3114 63.1917 19.6324C48.4971 17.2752 36.8386 31.1269 36.8386 31.1269C36.8386 31.1269 30.9512 38.9767 30.9512 42.9016C30.9512 46.8265 30.6709 174.106 30.6709 174.106H6Z" fill="#FF0000"/>
</svg>
